<svg width="170" height="171" viewBox="0 0 170 171" fill="none" xmlns="http://www.w3.org/2000/svg">
<path d="M85 0C131.944 0 170 38.0558 170 85C170 129.246 136.193 165.594 93 169.626V138.41C119.03 134.545 139 112.105 139 85C139 55.1766 114.823 31 85 31C55.1766 31 31 55.1766 31 85C31 104.987 41.8597 122.437 58 131.774V165.62C24.2919 154.336 0 122.506 0 85C0 38.0558 38.0558 0 85 0Z" fill="#F55A00"/>
<path d="M101.961 53C102.922 53 103.96 53.0599 105.071 53.1797C106.183 53.2995 107.159 53.4642 108 53.6738V70.6572C107.099 70.3877 105.852 70.1481 104.26 69.9385C102.668 69.7288 101.21 69.624 99.8887 69.624C97.0646 69.624 94.5406 70.2378 92.3174 71.4658C90.1243 72.6639 88.3817 74.3415 87.0898 76.498C85.8281 78.6546 85.1973 81.1406 85.1973 83.9561V123H85V170.962C78.4525 170.772 72.0922 169.836 66 168.238V53.9883H84.6113V66.0293H85.333C86.5948 61.7463 88.7125 58.5117 91.6865 56.3252C94.6607 54.1088 98.0856 53.0001 101.961 53Z" fill="#FFFFFF"/>
</svg>
